<svg xmlns="http://www.w3.org/2000/svg" version="1.1" width="1600px" height="1600px"
  style="shape-rendering:geometricPrecision; text-rendering:geometricPrecision; image-rendering:optimizeQuality; fill-rule:evenodd; clip-rule:evenodd"
  xmlns:xlink="http://www.w3.org/1999/xlink">
  <g>
    <path style="opacity:0.976" fill="#10b980"
      d="M 903.5,27.5 C 905.5,27.5 907.5,27.5 909.5,27.5C 884.125,71.2382 857.459,114.238 829.5,156.5C 837.368,156.693 844.035,159.526 849.5,165C 865.304,167.783 880.637,172.117 895.5,178C 899.951,180.783 904.117,183.95 908,187.5C 911.076,193.276 911.743,199.276 910,205.5C 904.883,218.403 898.217,230.403 890,241.5C 848.406,286.388 797.906,316.555 738.5,332C 726.858,333.71 715.191,335.21 703.5,336.5C 674.087,377.658 644.921,418.991 616,460.5C 613.16,464.68 610.993,469.18 609.5,474C 657.138,449.666 706.805,430 758.5,415C 829.153,396.522 900.987,386.356 974,384.5C 988.083,384.506 1001.92,386.339 1015.5,390C 1021.9,391.303 1024.4,395.137 1023,401.5C 1018.43,411.815 1011.59,420.315 1002.5,427C 965.68,452.248 928.013,476.248 889.5,499C 834.77,534.548 783.103,574.215 734.5,618C 819.129,595.926 904.129,574.926 989.5,555C 1071.61,536.977 1153.95,519.977 1236.5,504C 1247.79,502.078 1259.12,500.578 1270.5,499.5C 1269.68,503.853 1267.35,507.353 1263.5,510C 1244.1,525.03 1222.27,534.863 1198,539.5C 1195.94,539.007 1193.94,538.34 1192,537.5C 1026.23,568.119 862.067,605.619 699.5,650C 627.247,720.225 560.747,795.059 500,874.5C 471.757,913.303 445.757,953.636 422,995.5C 397.185,1040.62 377.852,1087.95 364,1137.5C 352.039,1178.81 348.372,1220.81 353,1263.5C 355.779,1285.16 361.779,1305.83 371,1325.5C 381.431,1344.59 393.431,1362.59 407,1379.5C 435.579,1410.81 467.412,1437.98 502.5,1461C 602.587,1519.35 710.587,1544.35 826.5,1536C 862.378,1534.24 897.044,1526.91 930.5,1514C 939.836,1509.67 948.502,1504.34 956.5,1498C 979.987,1476.86 1000.15,1453.02 1017,1426.5C 1045.43,1380.96 1069.1,1332.96 1088,1282.5C 1108.72,1230.67 1124.39,1177.33 1135,1122.5C 1142.59,1077.77 1144.59,1032.77 1141,987.5C 1138.28,957.959 1130.28,929.959 1117,903.5C 1108.74,889.903 1097.41,879.903 1083,873.5C 1082.17,873.667 1081.33,873.833 1080.5,874C 1073.47,880.697 1066.8,887.697 1060.5,895C 1048.83,904.174 1036.16,911.841 1022.5,918C 1017.67,919.958 1012.67,921.124 1007.5,921.5C 1007.61,919.217 1008.44,917.217 1010,915.5C 1025.93,898.568 1042.76,882.735 1060.5,868C 1078.86,854.319 1099.2,844.653 1121.5,839C 1132.94,836.779 1143.28,839.112 1152.5,846C 1168.49,859.12 1179.66,875.62 1186,895.5C 1197.36,930.597 1202.2,966.597 1200.5,1003.5C 1200.86,1039.61 1197.03,1075.28 1189,1110.5C 1170.29,1191.57 1142.29,1269.24 1105,1343.5C 1089.42,1373 1072.09,1401.33 1053,1428.5C 978.15,1518.17 881.984,1565.67 764.5,1571C 669.265,1576.3 578.265,1559.3 491.5,1520C 427.915,1489.43 374.748,1445.93 332,1389.5C 324.601,1377.76 317.601,1365.76 311,1353.5C 295.539,1315.61 289.873,1276.28 294,1235.5C 300.545,1181.98 314.879,1130.65 337,1081.5C 364.857,1020.74 398.524,963.742 438,910.5C 504.767,820.697 579.267,737.197 661.5,660C 563.758,686.687 466.091,714.02 368.5,742C 356.933,744.906 345.266,746.073 333.5,745.5C 332.432,743.813 332.599,742.146 334,740.5C 363.614,713.615 398.447,698.615 438.5,695.5C 440.833,695.667 443.167,695.833 445.5,696C 445.446,697.351 445.946,698.518 447,699.5C 529.658,675.392 612.492,651.892 695.5,629C 748.264,581.966 804.264,539.3 863.5,501C 895.334,481.584 927.001,461.917 958.5,442C 963.045,438.089 965.212,433.255 965,427.5C 964.167,426.667 963.333,425.833 962.5,425C 948.174,420.446 933.507,418.612 918.5,419.5C 842.311,421.143 767.644,432.643 694.5,454C 674.601,460.744 654.935,468.077 635.5,476C 614.167,486.667 592.833,497.333 571.5,508C 565.443,511.205 559.11,512.038 552.5,510.5C 552.415,501.595 555.248,493.595 561,486.5C 597.588,434.324 634.421,382.324 671.5,330.5C 660.525,327.126 650.525,321.96 641.5,315C 627.538,300.112 624.705,283.279 633,264.5C 641.204,248.617 652.371,235.117 666.5,224C 702.877,195.142 743.544,174.142 788.5,161C 801,141.167 813.5,121.333 826,101.5C 826.926,95.7346 828.926,90.0679 832,84.5C 838.667,75.8333 845.333,67.1667 852,58.5C 867.065,44.5871 884.231,34.2538 903.5,27.5 Z M 746.5,196.5 C 752.842,196.334 759.175,196.5 765.5,197C 745.37,226.762 724.87,256.262 704,285.5C 687.027,272.235 682.36,255.568 690,235.5C 694.938,224.565 702.105,215.399 711.5,208C 722.69,202.436 734.357,198.603 746.5,196.5 Z M 796.5,205.5 C 798.002,210.797 797.335,215.963 794.5,221C 796.955,222.54 799.621,222.874 802.5,222C 812.334,218.166 821.834,213.666 831,208.5C 838.503,211.582 845.169,215.916 851,221.5C 854.232,227.803 854.232,234.136 851,240.5C 841.157,263.009 825.657,280.509 804.5,293C 785.338,299.52 765.671,301.854 745.5,300C 740.934,299.609 736.601,298.442 732.5,296.5C 754.581,266.663 775.914,236.33 796.5,205.5 Z" />
  </g>
</svg>